<svg width="1440" height="1119" fill="none" xmlns="http://www.w3.org/2000/svg"><g clip-path="url(#a)" fill="#F76342"><path d="M61 118V89h-4v33l1 2 28 16 3-4-26-14 85-49 67 38 18 11-25 14 2 4 29-16 1-2V89h-4v29l-85-49V0h-5v69l-85 49Z"/><path d="M181 19h-4v33l1 2 28 16 3-4-25-14 56-33v-5l-59 34V19ZM0 19 28 3l85 49-25 14 2 4 29-16 1-2V19h-5v29L33 0h-9L0 14v5ZM236 258l-85-49v-98l25 14 2-4-28-16h-3l-28 16 2 4 25-14v98l-85 49v-29h-4v32l1 2 28 17 3-4-26-15 19-10 1-1 65-38 65 38 20 11-25 15 2 4 29-17 1-2v-32h-4v29Z"/><path d="M181 159h-4v33l1 1 28 17 3-4-25-14 56-33v-5l-59 34v-29ZM240 53v-2h-1l1 2ZM113 192l-25 14 2 4 29-17 1-1v-33h-4v29l-85-49V41l25 14 2-4-29-16h-2L0 51v2l1 2 25-14v98L0 154v5l28-17 85 50ZM176 265l2-4-28-16-2-1-1 1-28 16 2 4 25-14v29h5v-29l25 14Z"/><path d="m31 181 25 14 2-4-29-16h-2L0 191v2l1 2 25-14v98l-2 1h9l-2-1v-98ZM240 193v-2h-1l1 2ZM61 397v-28h-4v32l1 2 28 17 3-4-26-15 85-49 67 39 18 10-25 15 2 4 29-17 1-2v-32h-4v28l-85-49v-68h-5v68l-85 49Z"/><path d="M181 299h-4v32l1 2 28 17 3-4-25-15 56-32v-5l-59 34v-29ZM0 299l28-17 85 49-25 15 2 4 29-17 1-2v-32h-5v29l-82-48h-9L0 294v5ZM236 537l-85-49v-98l25 15 2-4-28-16-2-1-1 1-28 16 2 4 25-15v98l-85 49v-28h-4v32l1 2 28 17 3-4-26-15 19-10 1-1 65-38 65 37 20 12-25 15 2 4 29-17 1-2v-32h-4v28Z"/><path d="M181 439h-4v32l1 2 28 17 3-4-25-15 56-32v-5l-59 33v-28ZM240 333v-3l-1 1 1 2ZM113 471l-25 15 2 4 29-17 1-2v-32h-4v28l-85-49v-98l25 15 2-4-29-16-1-1-1 1-27 15v3l1 2 25-15v98L0 434v5l28-17 85 49ZM176 545l2-4-28-17h-3l-28 17 2 4 25-15v30h5v-30l25 15Z"/><path d="m31 460 25 15 2-4-29-17h-2L0 470v3l1 2 25-15v98l-2 1h9l-2-1v-98ZM240 473v-3l-1 1 1 2ZM61 677v-29h-4v33l1 2 28 16 3-3-26-15 85-49 67 38 18 11-25 15 2 3 29-16 1-2v-33h-4v29l-85-49v-68h-5v68l-85 49Z"/><path d="M181 578h-4v33l1 2 28 17 3-4-25-15 56-32v-6l-59 34v-29ZM0 579l28-17 85 49-25 15 2 4 29-17 1-2v-33h-5v29l-82-47h-9L0 573v6ZM236 817l-85-49v-98l25 15 2-4-28-17h-3l-28 17 2 4 25-15v98l-85 49v-29h-4v33l1 2 28 16 3-3-26-15 19-11h1l65-38 65 37 20 12-25 14 2 4 29-16 1-2v-33h-4v29Z"/><path d="M181 718h-4v33l1 2 28 16 3-3-25-15 56-33v-5l-59 34v-29ZM240 613v-3l-1 1 1 2ZM113 751l-25 15 2 3 29-16 1-2v-33h-4v29l-85-49v-98l25 15 2-4-29-17h-2L0 610v3l1 2 25-15v98L0 713v5l28-16 85 49ZM176 824l2-3-28-17h-3l-28 17 2 3 25-14v29h5v-29l25 14Z"/><path d="m31 740 25 15 2-4-29-17h-2L0 750v3l1 2 25-15v98l-2 1h9l-2-1v-98ZM240 753v-3l-1 1 1 2ZM61 957v-29h-4v33l1 2 28 16 3-4-26-14 85-49 67 38 18 11-25 14 2 4 29-16 1-2v-33h-4v29l-85-49v-69h-5v69l-85 49Z"/><path d="M181 858h-4v33l1 2 28 16 3-4-25-14 56-33v-5l-59 34v-29ZM0 858l28-16 85 49-25 14 2 4 29-16 1-2v-33h-5v29l-82-48h-9L0 853v5ZM236 1097l-85-49v-98l25 14 2-4-28-16h-3l-28 16 2 4 25-14v98l-85 49v-29h-4v33l1 2 28 16 3-4-26-14 19-11 1-1 65-37 65 37 20 12-25 14 2 4 29-16 1-2v-33h-4v29Z"/><path d="M181 998h-4v33l1 2 28 16 3-4-25-14 56-33v-5l-59 34v-29ZM240 892v-2l-1 1 1 1ZM113 1031l-25 14 2 4 29-16 1-2v-33h-4v29l-85-49v-98l25 14 2-3-29-17h-2L0 890v2l1 2 25-14v98L0 993v5l28-16 85 49ZM176 1104l2-4-28-16h-3l-28 16 2 4 25-14v29h5v-29l25 14Z"/><path d="m31 1020 25 14 2-4-29-16h-2l-27 16v2l1 2 25-14v98l-2 1h9l-2-1v-98ZM240 1032v-2h-1l1 2ZM301 118V89h-4v33l1 2 28 16 3-4-25-14 84-49 67 38 18 11-25 14 3 4 28-16 1-2V89h-4v29l-85-49V0h-5v69l-85 49Z"/><path d="M421 19h-4v33l1 2 28 16 3-4-25-14 56-33v-5l-59 34V19ZM240 19l28-16 85 49-25 14 2 4 29-16 1-2V19h-5v29L273 0h-9l-24 14v5ZM476 258l-85-49v-98l25 14 2-4-28-16h-3l-28 16 2 4 25-14v98l-85 49v-29h-4v32l1 2 28 17 3-4-25-15 18-10 1-1 66-37 64 37 20 11-25 15 3 4 28-16 1-2v-33h-4v29Z"/><path d="M421 159h-4v33l1 1 28 17 3-4-25-14 56-33v-5l-59 34v-29ZM480 53v-2h-1l1 2ZM353 192l-25 14 2 4 29-17 1-1v-33h-4v29l-85-49V41l25 14 2-4-28-16h-3l-27 16v2l1 2 25-14v98l-26 15v5l28-17 85 50ZM416 265l2-4-28-16-2-1-1 1-28 16 2 4 25-14v29h5v-29l25 14Z"/><path d="m271 181 25 14 2-4-29-16h-2l-27 16v2l1 2 25-14v98l-2 1h9l-2-1v-98ZM480 193v-2h-1l1 2ZM301 397v-28h-4v32l1 2 28 17 3-4-25-15 84-49 67 39 18 10-25 15 3 4 28-17 1-2v-32h-4v28l-85-49v-68h-5v68l-85 49Z"/><path d="M421 299h-4v32l1 2 28 17 3-4-25-15 56-32v-5l-59 34v-29ZM240 299l28-17 85 49-25 15 2 4 29-17 1-2v-32h-5v29l-82-48h-9l-24 14v5ZM476 537l-85-49v-98l25 15 2-4-28-16-1-1-2 1-28 16 2 4 25-15v98l-85 49v-28h-4v32l1 2 28 17 3-4-25-15 18-10 1-1 66-38 64 37 20 12-25 15 3 4 28-17 1-2v-32h-4v28Z"/><path d="M421 439h-4v32l1 2 28 17 3-4-25-15 56-32v-5l-59 33v-28ZM480 333v-3l-1 1 1 2ZM353 471l-25 15 2 4 29-17 1-2v-32h-4v28l-85-49v-98l25 15 2-4-29-16-1-1-1 1-27 15v3l1 2 25-15v98l-26 15v6l28-17 85 49ZM416 545l2-4-28-17h-3l-28 17 2 4 25-15v30h5v-30l25 15Z"/><path d="m271 460 25 15 2-4-29-17h-2l-27 16v3l1 2 25-15v98l-2 1h9l-2-1v-98ZM480 473v-3l-1 1 1 2ZM301 677v-29h-4v33l1 2 28 16 3-3-25-15 84-49 67 38 18 11-25 15 3 3 28-16 1-2v-33h-4v29l-85-49v-68h-5v68l-85 49Z"/><path d="M421 578h-4v33l1 2 28 17 3-4-25-15 56-32v-6l-59 34v-29ZM240 579l28-17 85 49-25 15 2 4 29-17 1-2v-33h-5v29l-82-47h-9l-24 13v6ZM476 817l-85-49v-98l25 15 2-4-28-17h-3l-28 17 2 4 25-15v98l-85 49v-29h-4v33l1 2 28 16 3-3-25-15 18-11h1l66-38 64 37 20 12-25 15 3 3 28-16 1-2v-33h-4v29Z"/><path d="M421 718h-4v33l1 2 28 16 3-3-25-15 56-33v-5l-59 34v-29ZM480 613v-3l-1 1 1 2ZM353 751l-25 15 2 3 29-16 1-2v-33h-4v29l-85-49v-98l25 15 2-4-29-17h-2l-27 16v3l1 2 25-15v98l-26 15v5l28-16 85 49ZM416 824l2-3-28-17h-3l-28 17 2 3 25-14v29h5v-29l25 14Z"/><path d="m271 740 25 15 2-4-29-17h-2l-27 16v3l1 1 25-14v98l-2 1h9l-2-1v-98ZM480 753v-3l-1 1 1 2ZM301 957v-29h-4v33l1 2 28 16 3-4-25-14 84-49 67 38 18 11-25 14 3 4 28-16 1-2v-33h-4v29l-85-49v-69h-5v69l-85 49Z"/><path d="M421 858h-4v33l1 2 28 16 3-4-25-14 56-33v-5l-59 34v-29ZM240 858l28-16 85 49-25 14 2 4 29-16 1-2v-33h-5v29l-82-48h-9l-24 14v5ZM476 1097l-85-49v-98l25 14 2-4-28-16h-3l-28 16 2 4 25-14v98l-85 49v-29h-4v33l1 2 28 16 3-4-25-14 18-11 1-1 66-37 64 37 20 12-25 14 3 4 28-16 1-2v-33h-4v29Z"/><path d="M421 998h-4v33l1 2 28 16 3-4-25-14 56-33v-5l-59 34v-29ZM480 892v-2l-1 1 1 1ZM353 1031l-25 14 2 4 29-16 1-2v-33h-4v29l-85-49v-98l25 14 2-4-29-16h-2l-27 16v2l1 2 25-14v98l-26 15v5l28-16 85 49ZM416 1104l2-4-28-16h-3l-28 16 2 4 25-14v29h5v-29l25 14Z"/><path d="m271 1020 25 14 2-4-29-16h-2l-27 16v2l1 2 25-14v98l-2 1h9l-2-1v-98ZM480 1032v-2h-1l1 2ZM541 118V89h-4v33l1 2 28 16 3-4-25-14 84-49 67 38 18 11-25 14 3 4 28-16 1-2V89h-4v29l-85-49V0h-5v69l-85 49Z"/><path d="M661 19h-4v33l1 2 28 16 3-4-25-14 56-33v-5l-59 34V19ZM480 19l28-16 85 49-25 14 2 4 29-16 1-2V19h-5v29L513 0h-9l-24 14v5ZM716 258l-85-49v-98l25 14 2-4-28-16h-3l-28 16 2 4 25-14v98l-85 49v-29h-4v32l1 2 28 17 3-4-25-15 18-10 1-1 66-37 64 37 20 11-25 15 3 4 28-16 1-2v-33h-4v29Z"/><path d="M661 159h-4v33l1 1 28 17 3-4-25-14 56-33v-5l-59 34v-29ZM720 53v-2h-1l1 2ZM593 192l-25 14 2 4 29-17 1-1v-33h-5v29l-84-49V41l25 14 2-4-29-16h-2l-27 16v2l1 2 25-14v98l-26 15v5l28-17 85 50ZM656 265l2-4-28-16-2-1-1 1-28 16 2 4 25-14v29h5v-29l25 14Z"/><path d="m511 181 25 14 2-4-28-16h-3l-27 16v2l1 2 25-14v98l-2 1h9l-2-1v-98ZM720 193v-2h-1l1 2ZM541 397v-28h-4v32l1 2 28 17 3-4-25-15 84-49 67 39 18 10-25 15 3 4 28-17 1-2v-32h-4v28l-85-49v-68h-5v68l-85 49Z"/><path d="M661 299h-4v32l1 2 28 17 3-4-25-15 56-32v-5l-59 34v-29ZM480 299l28-17 85 49-25 15 2 4 29-17 1-2v-32h-5v29l-82-48h-9l-24 14v5ZM716 537l-85-49v-98l25 15 2-4-28-16-2-1-1 1-28 16 2 4 25-15v98l-85 49v-28h-4v32l1 2 28 17 3-4-25-15 18-10 1-1 66-38 64 37 20 12-25 15 3 4 28-17 1-2v-32h-4v28Z"/><path d="M661 439h-4v32l1 2 28 17 3-4-25-15 56-32v-5l-59 33v-28ZM720 333v-3l-1 1 1 2ZM593 471l-25 15 2 4 29-17 1-2v-32h-5v28l-84-49v-98l25 15 2-4-29-16-1-1-1 1-27 15v3l1 2 25-15v98l-26 15v6l28-17 85 49ZM656 545l2-4-28-17h-3l-28 17 2 4 25-15v30h5v-30l25 15Z"/><path d="m511 460 25 15 2-4-28-17h-3l-27 16v3l1 2 25-15v98l-2 1h9l-2-1v-98ZM720 473v-3l-1 1 1 2ZM541 677v-29h-4v33l1 2 28 16 3-3-25-15 84-49 67 38 18 11-25 15 3 3 28-16 1-2v-33h-4v29l-85-49v-68h-5v68l-85 49Z"/><path d="M661 578h-4v33l1 2 28 17 3-4-25-15 56-32v-6l-59 34v-29ZM480 579l28-17 85 49-25 15 2 3 29-16 1-2v-33h-5v29l-82-47h-9l-24 13v6ZM716 817l-85-49v-98l25 15 2-4-28-17h-3l-28 17 2 4 25-15v98l-85 49v-29h-4v33l1 2 28 16 3-3-25-15 18-11h1l66-38 64 37 20 12-25 15 3 3 28-16 1-2v-33h-4v29Z"/><path d="M661 718h-4v33l1 2 28 16 3-3-25-15 56-33v-5l-59 34v-29ZM720 613v-3l-1 1 1 2ZM593 751l-25 14 2 4 29-16 1-2v-33h-5v29l-84-49v-98l25 15 2-4-29-17h-2l-27 16v3l1 2 25-15v98l-26 15v5l28-16 85 49ZM656 824l2-3-28-17h-3l-28 17 2 3 25-14v29h5v-29l25 14Z"/><path d="m511 740 25 15 2-4-28-17h-3l-27 16v3l1 1 25-14v98l-2 1h9l-2-1v-98ZM720 753v-3l-1 1 1 2ZM541 957v-29h-4v33l1 2 28 16 3-4-25-14 84-49 67 38 18 11-25 14 3 4 28-16 1-2v-33h-4v29l-85-49v-69h-5v69l-85 49Z"/><path d="M661 858h-4v33l1 2 28 16 3-4-25-14 56-33v-5l-59 34v-29ZM480 858l28-16 85 49-25 14 2 4 29-16 1-2v-33h-5v29l-82-48h-9l-24 14v5ZM716 1097l-85-49v-98l25 14 2-4-28-16h-3l-28 16 2 4 25-14v98l-85 49v-29h-4v33l1 2 28 16 3-4-25-14 18-11 1-1 66-37 64 37 20 12-25 14 3 4 28-16 1-2v-33h-4v29Z"/><path d="M661 998h-4v33l1 2 28 16 3-4-25-14 56-33v-5l-59 34v-29ZM720 892v-2l-1 1 1 1ZM593 1031l-25 14 2 4 29-16 1-2v-33h-5v29l-84-49v-98l25 14 2-4-29-16h-2l-27 16v2l1 2 25-14v98l-26 15v5l28-16 85 49ZM656 1104l2-4-28-16h-3l-28 16 2 4 25-14v29h5v-29l25 14Z"/><path d="m511 1020 25 14 2-4-28-16h-3l-27 16v2l1 2 25-14v98l-2 1h9l-2-1v-98ZM720 1032v-2h-1l1 2ZM781 118V89h-4v33l1 2 28 16 3-4-25-14 84-49 67 38 18 11-25 14 3 4 28-16 1-2V89h-4v29l-85-49V0h-5v69l-85 49Z"/><path d="M901 19h-4v33l1 2 28 16 3-4-25-14 56-33v-5l-59 34V19ZM720 19l28-16 85 49-25 14 2 4 29-16 1-2V19h-5v29L753 0h-9l-24 14v5ZM956 258l-85-49v-98l25 14 2-4-28-16h-3l-28 16 2 4 25-14v98l-85 49v-29h-4v32l1 2 28 17 3-4-25-15 18-10 1-1 66-37 64 37 20 11-25 15 3 4 28-16 1-2v-33h-4v29Z"/><path d="M901 159h-4v33l1 1 28 17 3-4-25-14 56-33v-5l-59 34v-29ZM960 53v-2h-1l1 2ZM833 192l-25 14 2 4 29-17 1-1v-33h-5v29l-84-49V41l25 14 2-4-29-16h-2l-27 16v2l1 2 25-14v98l-26 15v5l28-17 85 50ZM896 265l2-4-28-16-2-1-1 1-28 16 2 4 25-14v29h5v-29l25 14Z"/><path d="m751 181 25 14 2-4-28-16h-3l-27 16v2l1 2 25-14v98l-2 1h9l-2-1v-98ZM960 193v-2h-1l1 2ZM781 397v-28h-4v32l1 2 28 17 3-4-25-15 84-49 67 39 18 10-25 15 3 4 28-17 1-2v-32h-4v28l-85-49v-68h-5v68l-85 49Z"/><path d="M901 299h-4v32l1 2 28 17 3-4-25-15 56-32v-5l-59 34v-29ZM720 299l28-17 85 49-25 15 2 4 29-17 1-2v-32h-5v29l-82-48h-9l-24 14v5ZM956 537l-85-49v-98l25 15 2-4-28-16-2-1-1 1-28 16 2 4 25-15v98l-85 49v-28h-4v32l1 2 28 17 3-4-25-15 18-10 1-1 66-38 64 37 20 12-25 15 3 4 28-17 1-2v-32h-4v28Z"/><path d="M901 439h-4v32l1 2 28 17 3-4-25-15 56-32v-5l-59 33v-28ZM960 333v-3l-1 1 1 2ZM833 471l-25 15 2 4 29-17 1-2v-32h-5v28l-84-49v-98l25 15 2-4-29-16-1-1-1 1-27 15v3l1 2 25-15v98l-26 15v6l28-17 85 49ZM896 545l2-4-28-17h-3l-28 17 2 4 25-15v30h5v-30l25 15Z"/><path d="m751 460 25 15 2-4-28-17h-3l-27 16v3l1 2 25-15v98l-2 1h9l-2-1v-98ZM960 473v-3l-1 1 1 2ZM781 677v-29h-4v33l1 2 28 16 3-3-25-15 84-49 67 38 18 11-25 15 3 3 28-16 1-2v-33h-4v29l-85-49v-68h-5v68l-85 49Z"/><path d="M901 578h-4v33l1 2 28 17 3-4-25-15 56-32v-6l-59 34v-29ZM720 579l28-17 85 49-25 15 2 4 29-17 1-2v-33h-5v29l-82-47h-9l-24 13v6ZM956 817l-85-49v-98l25 15 2-4-28-17h-3l-28 17 2 4 25-15v98l-85 49v-29h-4v33l1 2 28 16 3-3-25-15 18-11h1l66-38 64 37 20 12-25 15 3 3 28-16 1-2v-33h-4v29Z"/><path d="M901 718h-4v33l1 2 28 16 3-3-25-15 56-33v-5l-59 34v-29ZM960 613v-3l-1 1 1 2ZM833 751l-25 15 2 3 29-16 1-2v-33h-5v29l-84-49v-98l25 15 2-4-29-17h-2l-27 16v3l1 2 25-15v98l-26 15v5l28-16 85 49ZM896 824l2-3-28-17h-3l-28 17 2 3 25-14v29h5v-29l25 14Z"/><path d="m751 740 25 15 2-4-28-17h-3l-27 16v3l1 1 25-14v98l-2 1h9l-2-1v-98ZM960 753v-3l-1 1 1 2ZM781 957v-29h-4v33l1 2 28 16 3-4-25-14 84-49 67 38 18 11-25 14 3 4 28-16 1-2v-33h-4v29l-85-49v-69h-5v69l-85 49Z"/><path d="M901 858h-4v33l1 2 28 16 3-4-25-14 56-33v-5l-59 34v-29ZM720 858l28-16 85 49-25 14 2 4 29-16 1-2v-33h-5v29l-82-48h-9l-24 14v5ZM956 1097l-85-49v-98l25 14 2-4-28-16h-3l-28 16 2 4 25-14v98l-85 49v-29h-4v33l1 2 28 16 3-4-25-14 18-11 1-1 66-37 64 37 20 12-25 14 3 4 28-16 1-2v-33h-4v29Z"/><path d="M901 998h-4v33l1 2 28 16 3-4-25-14 56-33v-5l-59 34v-29ZM960 892v-2l-1 1 1 1ZM833 1031l-25 14 2 4 29-16 1-2v-33h-5v29l-84-49v-98l25 14 2-4-29-16h-2l-27 16v2l1 2 25-14v98l-26 15v5l28-16 85 49ZM896 1104l2-4-28-16h-3l-28 16 2 4 25-14v29h5v-29l25 14Z"/><path d="m751 1020 25 14 2-4-28-16h-3l-27 16v2l1 2 25-14v98l-2 1h9l-2-1v-98ZM960 1032v-2h-1l1 2ZM1021 118V89h-4v33l1 2 28 16 3-4-26-14 85-49 67 38 18 11-25 14 3 4 28-16 1-2V89h-4v29l-85-49V0h-5v69l-85 49Z"/><path d="M1141 19h-4v33l1 2 28 16 3-4-26-14 57-33v-5l-59 34V19ZM960 19l28-16 85 49-25 14 2 4 29-16 1-2V19h-5v29L993 0h-9l-24 14v5ZM1196 258l-85-49v-98l25 14 2-4-28-16h-3l-28 16 2 4 25-14v98l-85 49v-29h-4v32l1 2 28 17 3-4-25-15 18-10 1-1 66-37 64 37 20 11-25 15 3 4 28-16 1-2v-33h-4v29Z"/><path d="M1141 159h-4v33l1 1 28 17 3-4-26-14 57-33v-5l-59 34v-29ZM1200 53v-2h-1l1 2ZM1073 192l-25 14 2 4 29-17 1-1v-33h-5v29l-84-49V41l25 14 2-4-29-16h-2l-27 16v2l1 2 25-14v98l-26 15v5l28-17 85 50ZM1136 265l2-4-28-16-2-1-1 1-28 16 2 4 25-14v29h5v-29l25 14Z"/><path d="m991 181 25 14 2-4-28-16h-3l-27 16v2l1 2 25-14v98l-2 1h9l-2-1v-98ZM1200 193v-2h-1l1 2ZM1021 397v-28h-4v32l1 2 28 17 3-4-26-15 85-49 67 39 18 10-25 15 3 4 28-17 1-2v-32h-4v28l-85-49v-68h-5v68l-85 49Z"/><path d="M1141 299h-4v32l1 2 28 17 3-4-26-15 57-32v-5l-59 34v-29ZM960 299l28-17 85 49-25 15 2 4 29-17 1-2v-32h-5v29l-82-48h-9l-24 14v5ZM1196 537l-85-49v-98l25 15 2-4-28-16-2-1-1 1-28 16 2 4 25-15v98l-85 49v-28h-4v32l1 2 28 17 3-4-25-15 18-10 1-1 66-38 64 37 20 12-25 15 3 4 28-17 1-2v-32h-4v28Z"/><path d="M1141 439h-4v32l1 2 28 17 3-4-26-15 57-32v-5l-59 33v-28ZM1200 333v-3l-1 1 1 2ZM1073 471l-25 15 2 4 29-17 1-2v-32h-5v28l-84-49v-98l25 15 2-4-29-16-1-1-1 1-27 15v3l1 2 25-15v98l-26 15v6l28-17 85 49ZM1136 545l2-4-28-17h-3l-28 17 2 4 25-15v30h5v-30l25 15Z"/><path d="m991 460 25 15 2-4-28-17h-3l-27 16v3l1 2 25-15v98l-2 1h9l-2-1v-98ZM1200 473v-3l-1 1 1 2ZM1021 677v-29h-4v33l1 2 28 16 3-3-26-15 85-49 67 38 18 11-25 15 3 3 28-16 1-2v-33h-4v29l-85-49v-68h-5v68l-85 49Z"/><path d="M1141 578h-4v33l1 2 28 17 3-4-26-15 57-32v-6l-59 34v-29ZM960 579l28-17 85 49-25 15 2 4 29-17 1-2v-33h-5v29l-82-47h-9l-24 13v6ZM1196 817l-85-49v-98l25 15 2-4-28-17h-3l-28 17 2 4 25-15v98l-85 49v-29h-4v33l1 2 28 16 3-3-25-15 18-11h1l66-38 64 37 20 12-25 15 3 3 28-16 1-2v-33h-4v29Z"/><path d="M1141 718h-4v33l1 2 28 16 3-3-26-15 57-33v-5l-59 34v-29ZM1200 613v-3l-1 1 1 2ZM1073 751l-25 15 2 3 29-16 1-2v-33h-5v29l-84-49v-98l25 15 2-4-29-17h-2l-27 16v3l1 2 25-15v98l-26 15v5l28-16 85 49ZM1136 824l2-3-28-17h-3l-28 17 2 3 25-14v29h5v-29l25 14Z"/><path d="m991 740 25 15 2-4-28-17h-3l-27 16v3l1 1 25-14v98l-2 1h9l-2-1v-98ZM1200 753v-3l-1 1 1 2ZM1021 957v-29h-4v33l1 2 28 16 3-4-26-14 85-49 67 38 18 11-25 14 3 4 28-16 1-2v-33h-4v29l-85-49v-69h-5v69l-85 49Z"/><path d="M1141 858h-4v33l1 2 28 16 3-4-26-14 57-33v-5l-59 34v-29ZM960 858l28-16 85 49-25 14 2 4 29-16 1-2v-33h-5v29l-82-48h-9l-24 14v5ZM1196 1097l-85-49v-98l25 14 2-4-28-16h-3l-28 16 2 4 25-14v98l-85 49v-29h-4v33l1 2 28 16 3-4-25-14 18-11 1-1 66-37 64 37 20 12-25 14 3 4 28-16 1-2v-33h-4v29Z"/><path d="M1141 998h-4v33l1 2 28 16 3-4-26-14 57-33v-5l-59 34v-29ZM1200 892v-2l-1 1 1 1ZM1073 1031l-25 14 2 4 29-16 1-2v-33h-5v29l-84-49v-98l25 14 2-4-29-16h-2l-27 16v2l1 2 25-14v98l-26 15v5l28-16 85 49ZM1136 1104l2-4-28-16h-3l-28 16 2 4 25-14v29h5v-29l25 14Z"/><path d="m991 1020 25 14 2-4-28-16h-3l-27 16v2l1 2 25-14v98l-2 1h9l-2-1v-98ZM1200 1032v-2h-1l1 2ZM1261 118V89h-4v33l1 2 28 16 3-4-26-14 85-49 67 38 18 11-25 14 3 4 28-16 1-2V89h-4v29l-85-49V0h-5v69l-85 49Z"/><path d="M1381 19h-4v33l1 2 28 16 2-4-25-14 57-33v-5l-59 34V19ZM1200 19l28-16 85 49-25 14 2 4 29-16 1-2V19h-5v29l-82-48h-9l-24 14v5ZM1436 258l-85-49v-98l25 14 2-4-28-16h-3l-28 16 2 4 25-14v98l-85 49v-29h-4v32l1 2 28 17 3-4-25-15 18-10 1-1 66-37 64 37 20 11-25 15 3 4 28-16 1-2v-33h-4v29Z"/><path d="M1381 159h-4v33l1 1 28 17 2-4-25-14 57-33v-5l-59 34v-29ZM1440 53v-2h-1l1 2ZM1313 192l-25 14 2 4 29-17 1-1v-33h-5v29l-84-49V41l25 14 2-4-29-16h-2l-27 16v2l1 2 25-14v98l-26 15v5l28-17 85 50ZM1376 265l2-4-28-16-2-1-1 1-28 16 2 4 25-14v29h5v-29l25 14Z"/><path d="m1231 181 25 14 2-4-28-16h-3l-27 16v2l1 2 25-14v98l-2 1h9l-2-1v-98ZM1440 193v-2h-1l1 2ZM1261 397v-28h-4v32l1 2 28 17 3-4-26-15 85-49 67 39 18 10-25 15 3 4 28-17 1-2v-32h-4v28l-85-49v-68h-5v68l-85 49Z"/><path d="M1381 299h-4v32l1 2 28 17 2-4-25-15 57-32v-5l-59 34v-29ZM1200 299l28-17 85 49-25 15 2 4 29-17 1-2v-32h-5v29l-82-48h-9l-24 14v5ZM1436 537l-85-49v-98l25 15 2-4-28-16-2-1-1 1-28 16 2 4 25-15v98l-85 49v-28h-4v32l1 2 28 17 3-4-25-15 18-10 1-1 66-38 64 37 20 12-25 15 3 4 28-17 1-2v-32h-4v28Z"/><path d="M1381 439h-4v32l1 2 28 17 2-4-25-15 57-32v-5l-59 33v-28ZM1440 333v-3l-1 1 1 2ZM1313 471l-25 15 2 4 29-17 1-2v-32h-5v28l-84-49v-98l25 15 2-4-29-16-1-1-1 1-27 15v3l1 2 25-15v98l-26 15v6l28-17 85 49ZM1376 545l2-4-28-17h-3l-28 17 2 4 25-15v30h5v-30l25 15Z"/><path d="m1231 460 25 15 2-4-28-17h-3l-27 16v3l1 2 25-15v98l-2 1h9l-2-1v-98ZM1440 473v-3l-1 1 1 2ZM1261 677v-29h-4v33l1 2 28 16 3-3-26-15 85-49 67 38 18 11-25 15 3 3 28-16 1-2v-33h-4v29l-85-49v-68h-5v68l-85 49Z"/><path d="M1381 578h-4v33l1 2 28 17 2-4-25-15 57-32v-6l-59 34v-29ZM1200 579l28-17 85 49-25 15 2 4 29-17 1-2v-33h-5v29l-82-47h-9l-24 13v6ZM1436 817l-85-49v-98l25 15 2-4-28-17h-3l-28 17 2 4 25-15v98l-85 49v-29h-4v33l1 2 28 16 3-3-25-15 18-11h1l66-38 64 37 20 12-25 15 3 3 28-16 1-2v-33h-4v29Z"/><path d="M1381 718h-4v33l1 2 28 16 2-3-25-15 57-33v-5l-59 34v-29ZM1440 613v-3l-1 1 1 2ZM1313 751l-25 15 2 3 29-16 1-2v-33h-5v29l-84-49v-98l25 15 2-4-29-17h-2l-27 16v3l1 2 25-15v98l-26 15v5l28-16 85 49ZM1376 824l2-3-28-17h-3l-28 17 2 3 25-14v29h5v-29l25 14Z"/><path d="m1231 740 25 15 2-4-28-17h-3l-27 16v3l1 1 25-14v98l-2 1h9l-2-1v-98ZM1440 753v-3l-1 1 1 2ZM1261 957v-29h-4v33l1 2 28 16 3-4-26-14 85-49 67 38 18 11-25 14 3 4 28-16 1-2v-33h-4v29l-85-49v-69h-5v69l-85 49Z"/><path d="M1381 858h-4v33l1 2 28 16 2-4-25-14 57-33v-5l-59 34v-29ZM1200 858l28-16 85 49-25 14 2 4 29-16 1-2v-33h-5v29l-82-48h-9l-24 14v5ZM1436 1097l-85-49v-98l25 14 2-4-28-16h-3l-28 16 2 4 25-14v98l-85 49v-29h-4v33l1 2 28 16 3-4-25-14 18-11 1-1 66-37 64 37 20 12-25 14 3 4 28-16 1-2v-33h-4v29Z"/><path d="M1381 998h-4v33l1 2 28 16 2-4-25-14 57-33v-5l-59 34v-29ZM1440 892v-2l-1 1 1 1ZM1313 1031l-25 14 2 4 29-16 1-2v-33h-5v29l-84-49v-98l25 14 2-4-29-16h-2l-27 16v2l1 2 25-14v98l-26 15v5l28-16 85 49ZM1376 1104l2-4-28-16h-3l-28 16 2 4 25-14v29h5v-29l25 14Z"/><path d="m1231 1020 25 14 2-4-28-16h-3l-27 16v2l1 2 25-14v98l-2 1h9l-2-1v-98ZM1440 1032v-2h-1l1 2Z"/></g><defs><clipPath id="a"><path fill="#fff" d="M0 0h1440v1119H0z"/></clipPath></defs></svg>